<svg id="Capa_1" enable-background="new 0 0 512 512" height="512" viewBox="0 0 512 512" width="512" xmlns="http://www.w3.org/2000/svg"><g><path d="m125.704 256.003h112.472v165.66h-112.472z" fill="#28abfa"/><path d="m125.704 256.003h-60.998l-47.83 82.83 47.83 82.83h60.998l47.83-82.83z" fill="#14cfff"/><path d="m447.289 256.003-34.642-60 .001 225.66h34.641l47.83-82.83z" fill="#f9b348"/><path d="m412.649 256.003-165.338-83.19v248.497l165.338.353 47.83-82.83z" fill="#f3da49"/><path d="m447.29 90.337h-34.643l.001 165.66h34.642l47.829-82.83z" fill="#f63"/><path d="m412.647 90.336h-168.827v165.661h168.828l47.829-82.83z" fill="#ff8b47"/><path d="m303.818 173.163-65.642 30 31-195.66h34.642l47.83 82.83z" fill="#9255e3"/><path d="m269.176 173.163-31 30-29.998-30-47.83-82.83 47.83-82.83h60.998l47.83 82.83z" fill="#ae7df0"/><path d="m303.818 338.837-65.642-30 31 195.66h34.642l47.83-82.83z" fill="#61ce5b"/><path d="m269.176 338.837-31-30-29.998 30-47.83 82.83 47.83 82.83h60.998l47.829-82.83z" fill="#94e368"/><path d="m303.82 173.17h-34.642v165.66h34.642l47.83-82.83z" fill="#373e9f"/><path d="m269.178 173.17h-60.998l-47.83 82.83 47.83 82.83h60.998l47.83-82.83z" fill="#3857bc"/><path d="m455.956 256 45.658-79.083c1.34-2.32 1.34-5.18 0-7.5l-47.823-82.834c-1.34-2.32-3.815-3.75-6.495-3.75h-91.318l-45.659-79.083c-1.34-2.32-3.815-3.75-6.495-3.75h-95.647c-2.68 0-5.155 1.43-6.495 3.75l-47.824 82.833c-1.34 2.32-1.34 5.18 0 7.5l45.658 79.084-43.494 75.333h-91.318c-2.68 0-5.155 1.43-6.495 3.75l-47.823 82.833c-1.34 2.32-1.34 5.18 0 7.5l47.823 82.834c1.34 2.32 3.815 3.75 6.495 3.75h91.318l45.659 79.083c1.34 2.32 3.815 3.75 6.495 3.75h95.648c2.68 0 5.155-1.43 6.495-3.75l45.658-79.083h91.318c2.68 0 5.155-1.43 6.495-3.75l47.824-82.834c1.34-2.32 1.34-5.18 0-7.5zm30.503-82.833-43.493 75.333h-86.988l-43.493-75.333 43.493-75.334h86.988zm-273.952-158.167h86.987l43.493 75.333-43.493 75.334h-86.988l-43.493-75.334zm-.001 165.667h86.988l43.493 75.333-43.493 75.333h-86.988l-43.493-75.333zm86.988 316.333h-86.988l-43.494-75.334 14.247-24.676c2.071-3.587.842-8.174-2.745-10.245-3.586-2.071-8.175-.843-10.245 2.745l-14.248 24.677h-86.987l-43.493-75.334 43.493-75.333h86.988l43.493 75.333-14.247 24.677c-2.071 3.587-.842 8.174 2.745 10.245 1.182.682 2.471 1.006 3.743 1.006 2.592 0 5.113-1.345 6.502-3.751l14.247-24.677h86.988l43.493 75.333zm143.471-82.833h-86.987l-43.493-75.334 43.493-75.333h86.988l43.493 75.333z"/></g></svg>